<svg width="273" height="270" viewBox="0 0 273 270" fill="none" xmlns="http://www.w3.org/2000/svg">
<path opacity="0.4" d="M158.945 0.607888C163.251 0.60614 170.482 0.375487 177.682 0.646352C189.112 1.07624 200.542 1.16012 211.969 1.00633C219.063 0.910221 226.145 0.370213 233.236 0.136046C237.337 -0.000260505 241.457 -0.07016 245.551 0.101097C248.747 0.235656 251.973 0.302092 255.139 0.90848C258.267 1.50963 260.725 2.79227 263.056 4.57474C265.738 6.62807 266.77 9.03267 267.25 11.8444C268.196 17.3701 269.341 22.8748 270.453 28.3812C271.016 31.1755 271.785 33.9453 272.281 36.7465C272.622 38.6741 272.72 40.6348 272.812 42.585C272.935 45.2378 273.037 47.894 272.987 50.5467C272.935 53.3829 272.683 56.2156 272.539 59.0519C272.351 62.7758 272.141 66.5015 272.03 70.2272C271.989 71.5536 272.275 72.8835 272.294 74.2116C272.393 81.5844 272.585 88.9571 272.493 96.3282C272.406 103.332 271.98 110.335 271.757 117.339C271.536 124.254 271.571 131.179 271.152 138.085C270.678 145.893 270.975 153.717 270.411 161.507C269.808 169.855 270.099 178.201 269.789 186.546C269.581 192.129 269.887 197.73 270.112 203.318C270.269 207.22 270.767 211.112 270.942 215.013C271.054 217.492 270.833 219.979 270.796 222.462C270.743 226.195 270.073 229.879 269.59 233.583C269.083 237.466 268.284 241.304 267.357 245.124C266.492 248.68 265.686 252.254 264.032 255.665C261.78 260.308 258.047 263.871 252.707 266.472C247.93 268.798 242.877 270.002 237.267 270C230.029 269.997 222.84 269.567 215.711 268.632C207.576 267.564 199.397 267.092 191.165 267.221C183.618 267.34 176.072 267.595 168.524 267.686C159.53 267.795 150.532 267.931 141.54 267.809C125.324 267.588 109.114 267.781 92.9004 267.901C81.2369 267.987 69.5952 267.517 57.9558 266.98C56.4047 266.91 54.8471 266.912 53.2939 266.86C47.4173 266.664 41.5299 266.57 35.6643 266.227C29.4666 265.865 23.3126 265.128 17.2678 263.933C15.5507 263.594 13.8621 263.134 12.2061 262.627C6.88229 260.999 3.95278 257.732 2.5459 253.446C2.00412 251.801 1.80971 250.131 1.84248 248.436C1.86214 247.459 1.85774 246.482 1.85119 245.503C1.81186 239.198 1.17837 232.916 0.739265 226.627C0.560129 224.056 0.557944 221.477 0.542652 218.901C0.477114 208.152 0.459621 197.405 0.372237 186.656C0.356945 184.529 -0.0602943 182.4 0.00742794 180.277C0.212779 173.801 0.562262 167.326 0.861551 160.852C0.903058 159.964 1.00358 159.078 1.02761 158.19C1.31816 147.268 1.92331 136.352 1.71141 125.423C1.65024 122.316 1.70484 119.203 1.86868 116.098C2.16141 110.602 2.62455 105.113 2.9282 99.617C3.11608 96.246 3.13574 92.8681 3.24497 89.4936C3.3258 87.0104 3.59229 84.5237 3.49398 82.0457C3.26023 76.1915 2.85174 70.3426 2.52406 64.4902C2.43449 62.8929 2.37332 61.2957 2.3056 59.6967C2.16797 56.3257 2.00416 52.9565 1.91459 49.5838C1.87745 48.2557 2.01725 46.9258 2.06094 45.596C2.14395 43.1093 2.14616 40.6208 2.30782 38.1393C2.72289 31.7557 3.41974 25.3982 5.5934 19.2102C6.01284 18.0166 6.50876 16.8336 7.08549 15.6837C9.17177 11.5281 13.0363 8.87888 18.3208 7.60669C21.0756 6.94438 23.9068 6.42889 26.7468 6.07065C34.1023 5.14447 41.5211 4.7897 48.9662 4.71106C56.8482 4.62718 64.7302 4.4734 72.6079 4.26894C75.4871 4.1938 78.3576 3.895 81.2325 3.68529C87.1986 3.25191 93.1648 2.808 99.1309 2.37287C99.9042 2.31695 100.682 2.28726 101.46 2.26629C109.335 2.03737 117.213 1.81545 125.09 1.58827C135.406 1.29119 145.719 0.990594 158.945 0.607888Z" fill="#2D201E"/>
</svg>
