<svg  viewBox="0 0 358 443" fill="none" xmlns="http://www.w3.org/2000/svg">
<path d="M208.433 0.997375C214.08 0.994507 223.562 0.616058 233.004 1.06049C247.993 1.76581 262.981 1.90344 277.967 1.65112C287.269 1.49341 296.556 0.607422 305.855 0.223206C311.233 -0.000427246 316.636 -0.115112 322.004 0.165863C326.195 0.386658 330.427 0.495636 334.578 1.49057C338.68 2.4769 341.903 4.58139 344.96 7.50595C348.478 10.8749 349.83 14.8203 350.46 19.4336C351.7 28.4998 353.202 37.5316 354.66 46.5662C355.399 51.1508 356.407 55.6954 357.058 60.2915C357.504 63.4541 357.633 66.6712 357.754 69.871C357.914 74.2234 358.049 78.5816 357.983 82.9341C357.914 87.5876 357.585 92.2353 357.396 96.8888C357.149 102.999 356.874 109.112 356.728 115.225C356.674 117.401 357.049 119.583 357.075 121.762C357.204 133.859 357.456 145.956 357.335 158.05C357.221 169.541 356.662 181.03 356.37 192.522C356.081 203.868 356.126 215.231 355.576 226.562C354.955 239.373 355.344 252.209 354.605 264.991C353.815 278.688 354.196 292.382 353.789 306.073C353.517 315.234 353.918 324.423 354.213 333.592C354.419 339.995 355.072 346.38 355.301 352.78C355.448 356.849 355.158 360.929 355.109 365.003C355.041 371.127 354.161 377.171 353.528 383.25C352.864 389.621 351.815 395.917 350.6 402.185C349.466 408.02 348.409 413.883 346.24 419.48C343.287 427.098 338.391 432.945 331.389 437.211C325.124 441.027 318.498 443.003 311.141 443C301.65 442.994 292.222 442.289 282.874 440.755C272.206 439.003 261.48 438.229 250.686 438.441C240.788 438.636 230.893 439.055 220.995 439.204C209.201 439.382 197.401 439.605 185.61 439.405C164.344 439.043 143.088 439.359 121.825 439.556C106.53 439.697 91.2641 438.926 76.0006 438.045C73.9666 437.931 71.9241 437.934 69.8872 437.848C62.181 437.526 54.4604 437.372 46.7685 436.81C38.6412 436.216 30.571 435.006 22.6442 433.045C20.3925 432.489 18.1781 431.735 16.0066 430.903C9.02513 428.231 5.18349 422.872 3.33858 415.839C2.62812 413.141 2.37318 410.4 2.41615 407.618C2.44193 406.016 2.43616 404.413 2.42756 402.807C2.376 392.462 1.54526 382.155 0.969439 371.836C0.734528 367.618 0.731663 363.386 0.711609 359.16C0.625666 341.523 0.602726 323.89 0.488135 306.253C0.468082 302.764 -0.0790672 299.272 0.00974067 295.788C0.279029 285.162 0.737325 274.539 1.1298 263.916C1.18423 262.46 1.31605 261.006 1.34757 259.549C1.72858 241.629 2.52214 223.718 2.24426 205.786C2.16405 200.688 2.23565 195.582 2.4505 190.486C2.83438 181.469 3.44171 172.463 3.83992 163.446C4.08629 157.915 4.11207 152.372 4.25531 146.836C4.3613 142.762 4.71076 138.681 4.58185 134.616C4.27532 125.011 3.73965 115.414 3.30993 105.812C3.19248 103.191 3.11227 100.57 3.02346 97.9468C2.84298 92.416 2.62816 86.888 2.51071 81.3542C2.46201 79.1751 2.64533 76.9931 2.70263 74.8112C2.81149 70.7311 2.81437 66.6482 3.02637 62.5768C3.57067 52.1028 4.48449 41.6718 7.33494 31.519C7.88497 29.5606 8.5353 27.6196 9.2916 25.7329C12.0275 18.9147 17.0953 14.5679 24.0251 12.4806C27.6376 11.3939 31.3503 10.5481 35.0745 9.96036C44.7202 8.44073 54.4489 7.85864 64.2121 7.72961C74.5481 7.59201 84.8843 7.33966 95.2147 7.00421C98.9905 6.88092 102.755 6.39066 106.525 6.0466C114.348 5.33551 122.172 4.60721 129.996 3.89325C131.01 3.80151 132.03 3.75278 133.05 3.71838C143.377 3.34277 153.708 2.97867 164.038 2.60593C177.565 2.1185 191.09 1.62527 208.433 0.997375Z" fill="#FEF0DC"/>
</svg>
