<svg width="259" height="266" viewBox="0 0 259 266" fill="none" xmlns="http://www.w3.org/2000/svg">
<path d="M150.794 0.598885C154.879 0.597163 161.739 0.369928 168.57 0.636781C179.414 1.0603 190.257 1.14293 201.099 0.991429C207.829 0.89674 214.548 0.364743 221.275 0.134045C225.166 -0.000242242 229.074 -0.0691074 232.958 0.0996122C235.991 0.232178 239.052 0.29762 242.055 0.895025C245.023 1.48727 247.354 2.75092 249.566 4.50698C252.111 6.52989 253.089 8.89886 253.545 11.669C254.442 17.1127 255.529 22.5359 256.583 27.9607C257.118 30.7136 257.848 33.4424 258.318 36.2022C258.641 38.1011 258.735 40.0328 258.822 41.9542C258.938 44.5676 259.035 47.1845 258.988 49.7979C258.938 52.5921 258.7 55.3828 258.563 58.177C258.384 61.8458 258.186 65.5163 258.08 69.1869C258.04 70.4936 258.312 71.8037 258.331 73.1122C258.424 80.3757 258.606 87.6393 258.519 94.9011C258.436 101.801 258.032 108.7 257.821 115.6C257.611 122.413 257.645 129.236 257.247 136.039C256.797 143.732 257.079 151.439 256.544 159.114C255.972 167.339 256.248 175.561 255.953 183.782C255.757 189.283 256.047 194.8 256.26 200.306C256.409 204.15 256.882 207.985 257.048 211.827C257.153 214.27 256.944 216.72 256.909 219.167C256.859 222.844 256.223 226.473 255.765 230.123C255.284 233.948 254.525 237.729 253.647 241.493C252.826 244.996 252.061 248.517 250.492 251.877C248.355 256.452 244.813 259.962 239.748 262.524C235.215 264.816 230.422 266.002 225.099 266C218.233 265.997 211.412 265.573 204.649 264.652C196.931 263.6 189.171 263.135 181.362 263.263C174.201 263.38 167.043 263.631 159.882 263.721C151.349 263.827 142.812 263.962 134.282 263.841C118.897 263.624 103.519 263.814 88.1363 263.932C77.0709 264.017 66.0263 263.554 54.9837 263.025C53.5121 262.956 52.0344 262.958 50.5609 262.906C44.9857 262.713 39.4001 262.62 33.8353 262.283C27.9555 261.927 22.117 261.2 16.3823 260.023C14.7532 259.689 13.1512 259.236 11.5802 258.736C6.52935 257.132 3.75007 253.914 2.41534 249.691C1.90135 248.071 1.71691 246.425 1.748 244.755C1.76665 243.793 1.76247 242.83 1.75625 241.866C1.71895 235.655 1.11794 229.465 0.701354 223.269C0.531404 220.737 0.529332 218.196 0.514824 215.658C0.452647 205.068 0.43605 194.48 0.353148 183.89C0.33864 181.795 -0.0572023 179.698 0.00704702 177.606C0.201867 171.226 0.533428 164.847 0.817368 158.469C0.856747 157.594 0.952117 156.721 0.974915 155.847C1.25057 145.087 1.82468 134.332 1.62364 123.564C1.56561 120.503 1.61741 117.437 1.77285 114.378C2.05057 108.963 2.48995 103.556 2.77804 98.1412C2.95628 94.8202 2.97493 91.4923 3.07856 88.1678C3.15525 85.7214 3.40807 83.2715 3.3148 80.8302C3.09304 75.0628 2.7055 69.3005 2.39462 63.5348C2.30964 61.9612 2.25161 60.3876 2.18736 58.8123C2.05679 55.4913 1.90138 52.172 1.81641 48.8493C1.78117 47.5408 1.9138 46.2307 1.95525 44.9205C2.03401 42.4706 2.0361 40.019 2.18947 37.5743C2.58325 31.2852 3.24437 25.0219 5.30656 18.9256C5.70449 17.7497 6.17498 16.5842 6.72213 15.4514C8.70143 11.3574 12.3678 8.74735 17.3813 7.49401C19.9948 6.84151 22.6808 6.33366 25.3752 5.98072C32.3535 5.06826 39.3918 4.71876 46.4551 4.64128C53.9329 4.55864 61.4107 4.40713 68.8844 4.2057C71.616 4.13167 74.3393 3.83729 77.0668 3.6307C82.7269 3.20374 88.3871 2.76641 94.0472 2.33773C94.7809 2.28264 95.5188 2.25338 96.2566 2.23272C103.728 2.00718 111.202 1.78856 118.675 1.56475C128.462 1.27207 138.247 0.975921 150.794 0.598885Z" fill="#FEF0DC"/>
</svg>
