<svg fill="none"  height="340px" xmlns="http://www.w3.org/2000/svg" viewBox="0 0 400 474"><path d="M84.7 24.7a9 9 0 0 0 4.3-.3q2.9-1 5.8-.7 3.7.2 7.4-.3c2.6-.4 5.4 0 7.8-.9q2.9-.8 5.8-1.3l2-.2q3 .3 6.2-.4l3.6-.2q1.2.1 2.3-.2 4.7-1.6 9.6-1.8c.8 0 1.6-.8 2.5-1q5-1.6 10-1.9l14.3-.7h1.2c4.8-1.5 10-1.3 14.8-2.1L203.4 9q1.5-.3 3-1 2.7-1 5.5-.4 2 .5 4.3 0l6.9-1.2 7.4-1q3.7-.4 7-1.2c3.4-.7 6.8-.7 10.2-.9q5.7-.3 11.3-1 1.5 0 2.8-.3c4.2-.5 8.4-.7 12.5-1.7a12 12 0 0 1 5.8.2q3 .7 6.3.6H301c1.8 0 3.6-1 5.5-.3l.7-.1c5 1.3 10 .7 15 1.3a36 36 0 0 1 7.5 2c.7.3 1.1 1.5 1.5 2.3q.3 1.2 1.6 1.4.5 0 1 .4l3.5 2.5c1.8 1 3.7 2 4.7 4q.6.8 1.4 1.3t1.1 1.1q1.4 2.4 2.6 4.9c.7 1.5.7 3.3 2.3 4.4.5.4.4 1.5.7 2.2.2.6.3 1.5.8 1.8 2 1.2 2.2 3.2 2.6 5q1.2 5.2 2 10.5l1.8 13.3.3 6 .6 6.6.8 12c0 1.6.5 3.2-.5 4.7v1.2l1.1 12.5c.2 1.4.7 2.8.2 4.3q-.2 1 .1 1.9c1 2 .8 4.1 1.2 6.1q.7 3.3.3 6.7c-.4 5.1 0 10.2 2.1 15q.8 1.8.8 3.5 0 3.1.9 6.2c.4 1.8.8 3.5.4 5.4q-.1 1 .1 2 .8 4 .8 8.2c0 1.1.5 2.2.7 3.4.6 3 1.6 6 1.5 9.3q0 .8.2 1.5c2.2 2.7 1.9 5.8 2.1 9q.2 1.8.7 3.8l2.8 11 .5 4.3 1.6 8.1c.4 2 .3 3.9.9 5.8.6 2.2.8 4.4 2 6.4q.8 1.6.5 3.5c-.3 2.3.4 4.4.6 6.6q.3 1.4.8 2.6c.2.7.7 1.4.6 1.9-.9 2.3.8 4.6.2 7q-.2.9.2 1.8c1.1 2.1 1 4.4 1 6.6q.4 3 1.3 6a18 18 0 0 1 1 7c-.4 3.6.7 6.8 1.6 10q.9 2.4 1 4.7.1 5.3 1 10.6.9 7 1.3 14.1c.2 5.1 1.2 10.2 2 15.3.2 1.7.8 3.3.3 5q-.1 1 .3 2a16 16 0 0 1 .4 9.6q-.8 3.1.6 5.7 2.5 5 2.5 10.6.1 5.5.9 11 .1 1 .5 1.9 1.7 3.2 1.2 6.9l.1 2c.9 4.5.6 9.1.5 13.7q0 5.7-3.6 10.1-.8 1-1.2 2l-2.9 7q-1.1 2.9-4.2 4.4a48 48 0 0 0-9.4 6.4q-1.5 1.5-3.7 2-1.8.4-3.4 1.2-2.2 1.4-4.4.6c-2-.7-3.7-.1-5.4.6a22 22 0 0 1-9.5 2.2l-2 .2a6 6 0 0 1-3.8 0c-2.7-1-5.3-.4-7.7.8-3.8 2-8 2.5-12.1 3l-7.1 1q-5.2 1-10.6.2a12 12 0 0 0-7 1.2q-3.3 1.6-7 2.6-2.6.6-5.5.1-2.4-.2-4.5.9a12 12 0 0 1-5.6 1.3 41 41 0 0 0-12.5 2.2q-2.1.6-4.2.3c-3.9-.6-7.3.5-10.6 2q-3.4 1.7-7.2 1.5-4.9-.3-9.2 1.8-2.6 1.2-5.2 1.3c-3 0-5.8 1.2-8.8 2q-4.2 1-8.5 1.7c-2.5.3-5 .2-7.5.8q-1.6.4-3.5.3-4 0-7.7 1.2a115 115 0 0 1-11 2.8q-4.4.9-8.7 1.3a59 59 0 0 0-9.3 2q-4.1 1-8.6 1.3-4.3.4-7.8 2.5-2 1.2-4.3 1.9l-6.9 1.8q-1.7.4-3.5 0-3-.3-5.8 1-1.3.6-2.7.7a15 15 0 0 0-7.5 2q-1 .4-2.3 0-1.7-.2-3.6-.8l-4 2.4q-1 .6-2.2.9c-4.2.5-8.3 1.3-12.6.8q-2.7-.4-5 0c-3.7 1-6.9 0-10-1.3q-1.5-.5-2.5-1.2t-2.2-.7q-6.5 0-10.4-5.4l-4.4-6q2.2 0 4.5-.6 2.7-.7 5.5-.2c2 .4 4 .4 6-.9l2.1 1.7q4.6 2.8 9.1.2c3.1-1.7 4.8-4.7 6.2-8 1.2-2.7.4-5.1-.2-7.7a7 7 0 0 0-2.8-3.7c-5.5-3.7-12.4-2.8-15.8 3.9l-1.4 3.6c-4.5 2-9.5 2.4-14.1 4l-2.5 1q-1.6-3.7-1.6-8 .2-4.6-2.2-8.6-.5-.8-.6-1.4c.3-2.5-1.2-4.3-2.2-6.2q-1.1-2.2-1.6-4.7c2 .3 3.8.6 5.8 0h2L67 423c1.4 1.7 3.7 2.8 6 3.9 1.5.7 3.1 1 4.8-.3q1.3-.9 2.8-1.4A6 6 0 0 0 84 422q.5-1.3 1.2-2.4a9 9 0 0 0 .6-7c-1-3.7-4-6-7.4-7-4.6-1.3-8.6.6-11.4 4.5l-1.6 2.7q-1.8.1-3.5.6c-3 1.2-6.2 1.2-9.3 1.7l-6.1 1.1-.4-5.4q-.1-.9-.5-1.9c-1-3.5-2-7-2-10.8q0-2-.6-3.9l-.7-4 7.4 1.1q1 0 2.3-.5 3.1-1.1 6.6-.6l4.5.1c2.7 3.3 6.5 4 10.8 3.3q5-.6 7-5 1.9-3.7 3.3-7.2l-2.3-5.4q-1-2.4-3.2-3.4a12 12 0 0 0-9.9.5 13 13 0 0 0-5.5 5.5c-5.2.5-9.8.7-14.3 1.4-2.5.4-4.9 1.4-7.3 2.1v-3.5q0-1.7-.8-3.4-.7-1.6-.8-3.4-.3-2.4-1-4.6c-.6-1.3.7-2.8-.5-4v-.4c.3-2-1.6-3.5-1.5-5.6q4 .5 8 .5c1.6.1 3.1.3 4.7-.4q1.3-.3 2.7 0t3.1.2a7 7 0 0 1 3.8.9q2 1.1 4.3 2 3.5 1.2 6.3-1.2 3.3-2.6 4-6.6c1-4.1 1.5-8.3-2.2-11.7l-.5-.6q-3.8-4.4-9.2-1.5-4.5 2.4-6.8 7-2.6.4-5 1l-14 4.2v-.5l-1-4.6q-.5-1.9-.5-3.9 0-3.4-1.2-6.5a51 51 0 0 1-2.2-10l-.8-5c2.3-.6 4.4.1 6.5 0q3.3-.4 6.3.5 3.3 1 7-.3a8 8 0 0 0 7 3.6q4.7-.2 8.4-3.8.6-.5.9-1.3.8-1.6 1.1-3.4c.6-2.8 1-5.6-.6-8.4-2-3.6-7.3-6.5-11.9-3.7q-2.7 1.3-4.5 3.8-.6 1.2-2 1.6c-2.5.7-5 1.6-7.4 1.9q-4 .8-8 2-2.1.5-3.6 1.8-.4-3-.6-6.2c-1.7-4-1.8-8.4-2.7-12.7q-.5-1.5-.5-3l.2-4a6 6 0 0 0 2.7.1c1.8-.3 3.7 0 5.5-.4 3.4-.7 7.1.6 10-1.3l5.2 2.6q3 1.4 6-.3c3.2-1.8 5.8-5.6 6-9.6.3-5 0-7.1-5.4-9.2l-.4-.1c-2.7-1.5-5.3-1-7.9.5q-3 2-5 5-.5 1-1.2 1.5c-2.7 1.3-5.2 3-8.4 3q-3.8.5-7.3 1.7l-.8-2.4a7 7 0 0 1-.5-3.4q.2-2.6-1.1-4.9c-1.3-2.5-2.7-5.1-2.4-8.2q0-.6-.2-1.1a11 11 0 0 1-1.7-5.8l7 .4q2.1.1 4.1-1 1.4-.6 3-.6h5.9l5.1 3q2.5 1.5 5.2 0 4-2.4 6-6.7c2.3-5.3.8-12-5.6-15.3l-1.5-.4c-2.8.1-5.6.2-7.6 2.7l-5 6.5-2.8.3-2.3.2c-2 .4-4 1.2-6.1 1.4-2.4.3-4.3 1.5-6.2 2.5l-.4-3.8-.2-2c-.4-3-1.3-6.1-1.5-9.3-.2-2.4-1.4-4.7-2-7.2l-1.7-7.6q1.2.6 2.8.5l6.7.1c3.2 0 6.6-.2 9.8.6q1 .1 1.7.8c3.2 3.1 7.2 2.8 11.2 2.3a6 6 0 0 0 4.2-3.2l1.7-3.6q1.2-3.3-.5-6.1-1.6-2.4-3.6-4.7a8 8 0 0 0-10.4-1.1c-1.6 1.2-2.8 2.7-4.5 4.5q-2.3.8-5 1.1a12 12 0 0 0-4.5 1 5 5 0 0 1-2.3.5c-2.5-.1-4.6 1-6.9 1.6l-.9.4q.3-4 .1-8-.1-2.5-1.3-4.9A32 32 0 0 1 7.7 191h1l16.3-.4q2.5-.2 4.3 2c2.3 2.9 7.3 3.2 10.3 1l1.3-.9c2.6-1.4 4.3-3.3 4-6.5q0-.3.3-.7 1.3-2-.2-4-.5-1-.7-2.3-1.6-5-6.3-7.1-1.2-.5-2.3-.3c-2.8 1-5.6 1.8-7 4.7q-.6.8-1 1.7-.8 1.5-2.5 1.9l-3 .4-6.3.5v.2l-7 1.8q-1 .3-2 .9l.2-1.5q.3-1.6-.2-3.4-1.1-3.8-1.8-7.7-.2-1.5-.2-3.2v-3.9q-.3-2 .1-3.9l.2-1.2 1.3.3q4.4.6 8.7.2c1.2 0 2.5-.3 3.5.2q2.7 1 4.8 0l5.7 3.3q2.9 1.4 5.8.1c4-2.1 6.5-5.4 6.3-10.1q-.2-3.1-.8-6.3c-.4-1.5-1.2-3-2.8-3.7q-2-1-4-1.5c-3.7-.7-7 0-9.3 3q-1.6 2.5-3 5.2l-3.8.6q-1.6.1-2.7.5a17 17 0 0 1-6.8 1.8 6 6 0 0 0-4 1.8v-1q.2-5.5-1-11c-.9-3.8-1.6-7.7-1.3-11.7.1-1.5.8-3 .6-4.5q-.5-2-1.5-3.8h.4q4.6-.7 9.3-.7 1.7 0 3.5-.3l3.4-.2q.5.5.6.8 1.7 3.5 5.8 3.3l2 .2 2.2-.2c3.5-.9 5.2-3.6 6-6.7 1-3.5.7-6.8-2.6-9.6q-3.2-2.7-6.9-1.9-4.5 1.2-7.4 5c-.5.7-1 1.6-2 1.8-2.7.6-5.8.3-8.1 2.3-2.5-.1-4.4 1.3-6.4 2.2-.3-3.6-1.5-7.3-.2-11V91.7q2.2 1.1 4.8.5 1.3-.1 2.7.1 1 .1 2-.2c2.3-1.3 4.6-.7 6.5.7q3 2.1 6.3 2 1.8-1.1 3.5-2.4.9-.6 1.3-1.4 1.2-2.8 1.8-5.7c.4-3.2-1-5.6-3-7.7a6 6 0 0 0-3.5-1.8c-2.9-.2-5.6.4-7.6 2.7l-2 2.6q-2 0-3.4.3l-3 1.2c-1.8.6-3.5 1.6-5.5 1.8q-.6 0-1 .2l.5-.7c-.7-1.7.5-3.2.6-4.9.2-2.7.1-5.4 1.1-8q.5-1.5.2-2.8c-.4-2 .3-3.8 1-5.7 1-3 2.7-5.4 4-8q.7-1 1.5-1.4c1.8-.9 2.6-2.5 3.6-4a21 21 0 0 1 6.5-6.8q7.1-4 14.5-7.5a50 50 0 0 1 9-3.2q1.9-.6 3.8-.6c2.8.3 5.5-.3 8.3-.8h.3c1.4-.5 2.9.6 3.8 0a11 11 0 0 1 3.7-1.1q4.4-.7 8.7-2.4c4.1-1.6 8.5-2.6 13.1-2" fill="#77A48E"/></svg>