<svg width="1093" height="1561" viewBox="0 0 1093 1561" fill="none" xmlns="http://www.w3.org/2000/svg">
<path d="M868.147 1348.94C693.416 1313.81 401.551 1311.35 235.255 1330.06C207.992 1333.02 180.69 1327.47 172.468 1319C164.241 1309.58 180.562 1300.06 205.097 1297.11C398.659 1276.39 717.8 1278.73 919.833 1319.41C944.403 1324.03 952.639 1335.33 939.041 1343.9C925.434 1350.58 892.717 1353.56 868.147 1348.94ZM862.939 1401.9C849.332 1408.58 824.798 1411.53 805.683 1406.89C658.25 1376.36 434.547 1367.91 262.8 1387.59C240.988 1389.58 216.423 1385.91 210.932 1378.38C205.442 1370.84 216.312 1362.28 238.124 1360.29C437.137 1338.6 682.665 1347.89 851.941 1383.05C868.319 1385.81 876.546 1395.22 862.939 1401.9ZM797.722 1454.18C786.838 1459.9 767.754 1461.88 751.371 1458.17C623.048 1431.34 462.096 1426.39 271.239 1442.38C252.155 1444.36 235.768 1439.7 230.286 1434.06C224.8 1427.47 238.411 1421.73 254.768 1419.77C461.986 1402.76 642.035 1408.57 784.009 1438.18C803.115 1440.93 805.878 1448.48 797.722 1454.18ZM545.509 1182.15C473.872 1182.47 402.959 1187.68 336.819 1197.48C270.679 1207.28 210.608 1221.47 160.035 1239.26C57.8982 1275.17 0.6501 1323.51 0.884751 1373.65C1.1194 1423.79 58.8175 1471.61 161.286 1506.6C212.024 1523.93 272.225 1537.58 338.454 1546.79C404.682 1555.99 475.641 1560.56 547.278 1560.23C691.956 1559.58 830.616 1539.04 932.752 1503.12C1034.89 1467.21 1092.14 1418.87 1091.9 1368.73C1091.79 1343.91 1077.56 1319.39 1050.04 1296.57C1022.52 1273.76 982.238 1253.1 931.501 1235.78C880.764 1218.45 820.562 1204.8 754.333 1195.6C688.105 1186.4 617.146 1181.83 545.509 1182.15Z" fill="#4F796F"/>
<path fill-rule="evenodd" clip-rule="evenodd" d="M549.42 0L498.219 115.9L3.46875 1361.5H6.76676C15.51 1261.79 254.435 1181.88 547.894 1181.88C841.354 1181.88 1080.28 1261.79 1089.02 1361.5H1092.32L659.982 253.15L549.42 0Z" fill="#D9D9D9" fill-opacity="0.11"/>
</svg>
